<svg width="1024" height="1024" viewBox="0 0 1024 1024" fill="none" xmlns="http://www.w3.org/2000/svg">
    <rect width="1024" height="1024" rx="512" fill="#1C1C1E"/>
    <path d="M512 384C448 384 394.667 437.333 394.667 501.333C394.667 565.333 448 618.667 512 618.667C576 618.667 629.333 565.333 629.333 501.333C629.333 437.333 576 384 512 384Z" fill="white"/>
    <path d="M512 341.333C576 341.333 629.333 394.667 629.333 458.667C629.333 522.667 576 576 512 576C448 576 394.667 522.667 394.667 458.667C394.667 394.667 448 341.333 512 341.333ZM512 384C448 384 394.667 437.333 394.667 501.333C394.667 565.333 448 618.667 512 618.667C576 618.667 629.333 565.333 629.333 501.333C629.333 437.333 576 384 512 384Z" fill="white"/>
</svg> 