<svg width="1024" height="1024" viewBox="0 0 1024 1024" fill="none" xmlns="http://www.w3.org/2000/svg">
    <rect width="1024" height="1024" rx="512" fill="#30D158"/>
    <path d="M341.333 341.333H682.667C706.133 341.333 725.333 360.533 725.333 384V640C725.333 663.467 706.133 682.667 682.667 682.667H341.333C317.867 682.667 298.667 663.467 298.667 640V384C298.667 360.533 317.867 341.333 341.333 341.333Z" fill="white"/>
    <path d="M341.333 384H682.667C688.4 384 693.333 388.933 693.333 394.667V629.333C693.333 635.067 688.4 640 682.667 640H341.333C335.6 640 330.667 635.067 330.667 629.333V394.667C330.667 388.933 335.6 384 341.333 384Z" fill="white"/>
</svg> 